# xmcd CD database file
#
# Track frame offsets:
#	150
#	20199
#	44116
#	64211
#	89426
#	106312
#	126879
#	145459
#	166451
#	183784
#	204588
#	222535
#
# Disc length: 3183 seconds
#
# Revision: 1
# Processed by: cddbd v1.5.2PL0 Copyright (c) Steve Scherf et al.
# Submitted via: Feurio! 1.68 - http://www.feurio.com
#
DISCID=bf0c6d0c
DTITLE=Kevin Costner and Modern West - Untold Truths
DYEAR=2009
DGENRE=country
TTITLE0=Long Hot Night
TTITLE1=90 Miles an Hour
TTITLE2=Hey Man What About You
TTITLE3=Superman 14
TTITLE4=Don't Lock Em Away
TTITLE5=Down in Nogales
TTITLE6=Every Intention
TTITLE7=Five Minutes from America
TTITLE8=The Sun will Rise Again
TTITLE9=Back Yard
TTITLE10=Leland Iowa
TTITLE11=Gotta Get Away
EXTD=
EXTT0=
EXTT1=
EXTT2=
EXTT3=
EXTT4=
EXTT5=
EXTT6=
EXTT7=
EXTT8=
EXTT9=
EXTT10=
EXTT11=
PLAYORDER=
